<svg style="position: absolute; width: 0; height: 0; overflow: hidden;" version="1.1" xmlns="http://www.w3.org/2000/svg" xmlns:xlink="http://www.w3.org/1999/xlink">
    <defs>
        <symbol id="icon-twitter" viewBox="0 0 26 28">
            <title>twitter</title>
            <path d="M25.312 6.375c-0.688 1-1.547 1.891-2.531 2.609 0.016 0.219 0.016 0.438 0.016 0.656 0 6.672-5.078 14.359-14.359 14.359-2.859 0-5.516-0.828-7.75-2.266 0.406 0.047 0.797 0.063 1.219 0.063 2.359 0 4.531-0.797 6.266-2.156-2.219-0.047-4.078-1.5-4.719-3.5 0.313 0.047 0.625 0.078 0.953 0.078 0.453 0 0.906-0.063 1.328-0.172-2.312-0.469-4.047-2.5-4.047-4.953v-0.063c0.672 0.375 1.453 0.609 2.281 0.641-1.359-0.906-2.25-2.453-2.25-4.203 0-0.938 0.25-1.797 0.688-2.547 2.484 3.062 6.219 5.063 10.406 5.281-0.078-0.375-0.125-0.766-0.125-1.156 0-2.781 2.25-5.047 5.047-5.047 1.453 0 2.766 0.609 3.687 1.594 1.141-0.219 2.234-0.641 3.203-1.219-0.375 1.172-1.172 2.156-2.219 2.781 1.016-0.109 2-0.391 2.906-0.781z"></path>
        </symbol>
        <symbol id="icon-facebook" viewBox="0 0 16 28">
            <title>facebook</title>
            <path d="M14.984 0.187v4.125h-2.453c-1.922 0-2.281 0.922-2.281 2.25v2.953h4.578l-0.609 4.625h-3.969v11.859h-4.781v-11.859h-3.984v-4.625h3.984v-3.406c0-3.953 2.422-6.109 5.953-6.109 1.687 0 3.141 0.125 3.563 0.187z"></path>
        </symbol>
        <symbol id="icon-google-plus" viewBox="0 0 36 28">
            <title>google-plus</title>
            <path d="M22.453 14.266c0 6.547-4.391 11.188-11 11.188-6.328 0-11.453-5.125-11.453-11.453s5.125-11.453 11.453-11.453c3.094 0 5.672 1.125 7.672 3l-3.109 2.984c-0.844-0.812-2.328-1.766-4.562-1.766-3.906 0-7.094 3.234-7.094 7.234s3.187 7.234 7.094 7.234c4.531 0 6.234-3.266 6.5-4.937h-6.5v-3.938h10.813c0.109 0.578 0.187 1.156 0.187 1.906zM36 12.359v3.281h-3.266v3.266h-3.281v-3.266h-3.266v-3.281h3.266v-3.266h3.281v3.266h3.266z"></path>
        </symbol>
        <symbol id="icon-linkedin" viewBox="0 0 24 28">
            <title>linkedin</title>
            <path d="M5.453 9.766v15.484h-5.156v-15.484h5.156zM5.781 4.984c0.016 1.484-1.109 2.672-2.906 2.672v0h-0.031c-1.734 0-2.844-1.188-2.844-2.672 0-1.516 1.156-2.672 2.906-2.672 1.766 0 2.859 1.156 2.875 2.672zM24 16.375v8.875h-5.141v-8.281c0-2.078-0.75-3.5-2.609-3.5-1.422 0-2.266 0.953-2.641 1.875-0.125 0.344-0.172 0.797-0.172 1.266v8.641h-5.141c0.063-14.031 0-15.484 0-15.484h5.141v2.25h-0.031c0.672-1.062 1.891-2.609 4.672-2.609 3.391 0 5.922 2.219 5.922 6.969z"></path>
        </symbol>
        <symbol id="icon-caret" viewBox="0 0 24 24">
            <title>caret</title>
            <path d="M7 10l5 5 5-5z" />
            <path d="M0 0h24v24H0z" fill="none" />
        </symbol>
        <symbol id="icon-renovation" viewBox="0 0 90 90">
            <title>renovation</title>
            <path d="M62.540,45.207 C60.166,47.467 61.889,50.295 62.399,52.764 C63.719,59.153 63.245,60.451 57.216,62.207 C54.933,62.872 54.069,64.371 53.195,66.183 C50.881,70.977 48.067,75.466 44.983,79.803 C41.839,84.225 37.858,87.615 33.000,90.000 C31.333,90.000 29.667,90.000 28.000,90.000 C22.196,86.598 22.159,86.579 25.438,80.587 C31.109,70.224 37.734,60.469 44.598,50.874 C46.080,48.802 48.035,46.380 45.957,44.222 C43.592,41.766 41.157,43.981 38.979,45.562 C29.428,52.491 19.619,59.031 9.360,64.875 C3.583,68.165 3.178,68.015 0.000,62.000 C0.000,60.333 0.000,58.667 0.000,57.000 C4.791,47.557 13.382,42.471 22.233,37.734 C25.055,36.223 27.420,34.916 28.225,31.166 C29.181,26.716 32.976,25.598 36.674,28.253 C40.107,30.717 42.039,29.784 45.048,26.982 C52.103,20.414 58.793,13.565 64.950,6.171 C66.651,4.128 68.318,2.058 70.000,0.000 C70.667,0.000 71.333,0.000 72.000,0.000 C72.681,0.729 73.237,1.669 74.062,2.150 C78.968,5.018 78.059,7.881 74.715,11.561 C71.092,15.549 68.069,20.083 64.559,24.673 C65.527,24.751 65.924,24.911 66.109,24.778 C69.485,22.351 72.847,19.903 76.190,17.430 C83.652,11.912 83.647,11.905 90.000,18.000 C90.000,18.667 90.000,19.333 90.000,20.000 C80.241,27.741 71.539,36.639 62.540,45.207 ZM38.528,40.304 C37.685,37.267 36.698,34.268 35.669,31.287 C35.226,30.003 34.430,28.783 32.864,28.854 C31.345,28.923 30.782,30.227 30.098,31.408 C28.469,34.218 30.073,37.162 29.828,40.988 C26.281,36.011 25.432,38.552 24.843,41.784 C20.436,39.395 22.614,44.046 21.568,45.202 C19.173,43.219 15.601,45.163 14.513,48.770 C13.345,48.667 13.504,46.480 11.867,47.082 C10.678,48.328 12.959,49.953 11.630,51.022 C9.838,51.577 10.087,48.773 8.865,49.396 C6.704,50.498 9.170,52.849 7.738,54.571 C6.676,54.915 4.954,52.023 5.091,53.527 C5.366,56.571 2.828,57.762 2.361,60.017 C2.053,61.506 2.474,63.049 3.805,64.044 C5.137,65.041 6.372,64.183 7.507,63.561 C17.733,57.958 27.346,51.406 36.804,44.612 C38.351,43.501 39.016,42.062 38.528,40.304 ZM45.263,53.402 C38.594,62.748 32.257,72.305 26.693,82.349 C24.757,85.843 25.960,87.633 29.975,87.695 C32.600,87.736 33.717,83.930 36.768,84.967 C36.745,84.514 36.904,83.904 36.670,83.633 C35.022,81.721 36.769,81.689 37.807,81.804 C42.568,82.330 39.138,79.582 39.052,78.547 C40.454,77.117 41.837,79.054 43.132,77.938 C43.198,76.166 40.873,76.693 41.205,74.674 C45.044,76.477 44.773,71.339 47.599,71.054 C47.384,69.663 44.955,70.123 45.460,67.730 C45.074,66.079 51.641,71.216 48.258,65.598 C48.221,65.536 48.849,64.844 49.201,64.811 C54.435,64.317 50.243,61.724 49.861,60.276 C52.559,60.276 54.880,60.522 57.118,60.196 C58.854,59.944 61.010,59.348 61.230,57.164 C61.464,54.839 59.276,54.273 57.613,53.669 C55.276,52.820 52.859,52.182 50.451,51.547 C48.340,50.990 46.649,51.459 45.263,53.402 ZM64.304,28.451 C62.203,25.625 62.288,23.742 64.574,21.147 C67.970,17.292 70.891,13.024 74.134,9.029 C75.430,7.431 75.558,6.224 73.955,4.796 C72.375,3.389 70.904,2.793 69.235,4.566 C67.755,6.138 66.275,7.710 64.786,9.273 C59.338,14.994 55.088,21.761 48.155,26.212 C44.611,28.488 43.360,32.936 45.003,37.380 C46.711,41.995 49.836,44.842 56.061,44.829 C59.155,44.884 62.555,43.567 64.591,39.747 C66.623,35.937 66.874,31.909 64.304,28.451 ZM85.429,16.229 C83.921,14.448 82.589,15.101 81.160,16.179 C78.915,17.872 76.819,19.821 74.404,21.219 C68.743,24.495 64.987,28.356 69.297,35.881 C74.654,30.864 79.942,25.901 85.243,20.955 C86.887,19.421 86.896,17.962 85.429,16.229 ZM56.007,38.672 C53.429,38.672 51.340,36.582 51.340,34.004 C51.340,31.427 53.429,29.337 56.007,29.337 C58.585,29.337 60.674,31.427 60.674,34.004 C60.674,36.582 58.585,38.672 56.007,38.672 Z" class="cls-1"/>
        </symbol>
        <symbol id="icon-shipping" viewBox="0 0 128 89.312">
            <title>shipping</title>
            <path d="M128.000,47.373 C128.000,58.024 128.000,68.675 128.000,79.327 C125.391,81.453 122.284,80.474 119.380,80.648 C117.340,80.770 115.317,80.758 114.317,82.959 C112.842,86.207 110.040,87.885 107.000,89.312 C105.333,89.312 103.667,89.312 102.000,89.312 C99.677,88.036 96.886,87.143 95.767,84.564 C94.195,80.943 91.423,80.600 88.026,80.626 C74.202,80.733 60.376,80.758 46.553,80.619 C42.068,80.573 37.977,80.458 35.684,85.457 C34.706,87.591 32.110,88.320 30.000,89.312 C28.667,89.312 27.333,89.312 26.000,89.312 C22.986,88.272 20.060,87.015 18.583,83.960 C17.206,81.112 14.918,80.717 12.070,80.597 C8.038,80.427 3.795,81.810 0.000,79.327 C0.000,53.031 0.000,26.736 0.000,0.440 C2.491,0.302 4.981,0.046 7.472,0.043 C29.134,0.010 50.795,-0.035 72.457,0.043 C87.303,0.097 85.144,-1.690 85.338,12.621 C85.531,26.874 83.560,25.116 97.857,24.944 C103.125,24.880 106.999,26.322 110.589,30.195 C116.125,36.168 122.170,41.671 128.000,47.373 ZM42.454,55.011 C53.447,55.011 64.442,54.915 75.433,55.063 C79.275,55.115 80.809,53.720 80.772,49.823 C80.641,36.186 80.636,22.546 80.772,8.909 C80.812,4.906 79.060,3.762 75.325,3.778 C53.507,3.871 31.687,3.883 9.868,3.756 C5.796,3.732 4.233,5.127 4.285,9.270 C4.455,22.573 4.507,35.883 4.262,49.184 C4.175,53.928 6.044,55.188 10.477,55.091 C21.131,54.858 31.795,55.015 42.454,55.011 ZM44.862,59.703 C33.202,59.703 21.542,59.686 9.883,59.719 C7.780,59.725 4.965,59.233 4.636,62.155 C4.211,65.925 4.458,69.780 4.570,73.595 C4.606,74.846 5.577,75.880 6.834,75.898 C11.270,75.960 15.779,77.641 19.279,72.430 C23.503,66.139 31.830,66.282 36.171,72.424 C38.333,75.482 40.748,76.234 44.138,76.211 C58.129,76.115 72.122,76.087 86.113,76.230 C90.460,76.274 94.247,76.029 96.686,71.608 C97.804,69.582 100.166,68.534 102.555,68.159 C107.338,67.409 111.212,69.143 113.649,73.201 C115.497,76.278 118.097,76.508 120.951,75.950 C124.496,75.257 123.462,72.195 123.636,69.851 C123.734,68.528 123.466,67.159 123.685,65.866 C125.654,54.274 120.982,46.038 112.483,38.091 C105.815,31.856 99.471,28.331 90.528,29.747 C90.365,29.773 90.194,29.764 90.029,29.753 C86.590,29.524 85.257,31.188 85.321,34.548 C85.436,40.534 85.368,46.523 85.335,52.511 C85.299,59.306 84.974,59.664 78.343,59.686 C67.183,59.722 56.023,59.696 44.862,59.703 ZM110.643,78.708 C110.333,75.126 108.597,72.800 104.754,72.683 C100.981,72.568 98.795,74.559 98.458,78.286 C98.152,81.675 101.235,85.049 104.535,84.819 C108.153,84.566 110.257,82.471 110.643,78.708 ZM28.161,72.645 C24.117,72.736 21.426,75.367 21.464,78.611 C21.501,81.796 24.920,85.172 28.047,84.793 C31.678,84.354 33.756,82.199 33.635,78.420 C33.512,74.582 31.258,72.811 28.161,72.645 Z" class="cls-1"/>
        </symbol>
        <symbol id="icon-profit" viewBox="0 0 128 128">
            <title>profit</title>
            <path d="M124.397,116.049 C120.196,123.155 113.466,126.075 106.000,128.000 C78.000,128.000 50.000,128.000 22.000,128.000 C18.801,126.397 15.122,126.294 11.945,124.410 C4.850,120.201 1.901,113.483 0.000,106.000 C0.000,78.000 0.000,50.000 0.000,22.000 C1.593,18.793 1.695,15.112 3.588,11.931 C7.805,4.845 14.507,1.880 22.000,0.000 C50.000,0.000 78.000,0.000 106.000,0.000 C109.208,1.587 112.879,1.724 116.059,3.606 C123.159,7.805 126.100,14.522 128.000,22.000 C128.000,50.000 128.000,78.000 128.000,106.000 C126.402,109.200 126.277,112.869 124.397,116.049 ZM123.005,24.413 C122.989,13.421 114.494,5.002 103.461,4.990 C77.155,4.964 50.848,4.965 24.542,4.990 C13.451,5.001 5.005,13.385 4.992,24.419 C4.961,50.725 4.967,77.032 4.989,103.338 C4.998,114.687 13.379,122.995 24.796,123.013 C37.783,123.034 50.769,123.018 63.756,123.018 C77.076,123.018 90.396,123.051 103.715,123.008 C114.409,122.972 122.980,114.496 123.001,103.831 C123.052,77.358 123.044,50.885 123.005,24.413 ZM111.026,35.572 C112.955,44.977 111.722,54.482 111.896,63.936 C112.002,69.722 112.286,75.505 111.136,81.331 C108.888,92.720 99.487,100.937 87.816,100.976 C79.820,101.003 71.824,100.981 63.829,100.981 C56.833,100.980 49.811,100.600 42.846,101.064 C30.984,101.855 17.362,94.837 16.348,78.088 C15.507,64.208 14.756,50.131 16.983,36.260 C18.965,23.917 27.978,16.310 40.843,16.087 C56.330,15.818 71.886,15.214 87.290,16.376 C94.550,16.924 99.592,16.327 104.276,10.527 C106.659,7.576 111.082,7.264 114.128,10.175 C117.099,13.015 116.803,16.715 114.566,20.143 C113.015,22.521 110.505,33.028 111.026,35.572 ZM67.832,65.699 C64.473,67.554 62.599,67.114 60.741,63.637 C58.115,58.720 54.931,54.101 51.556,48.662 C47.325,59.461 43.400,69.481 39.337,79.854 C55.727,79.854 71.500,79.854 87.898,79.854 C86.032,76.327 84.404,73.128 82.667,69.989 C77.434,60.526 77.363,60.435 67.832,65.699 ZM76.645,50.376 C76.742,49.708 74.959,47.992 74.314,48.120 C70.994,48.781 71.218,52.143 70.291,54.802 C72.374,53.086 76.147,53.804 76.645,50.376 ZM78.278,44.793 C78.918,45.767 79.417,46.833 79.691,47.334 C81.233,46.819 81.624,46.805 81.828,46.603 C85.471,42.982 89.217,39.452 92.648,35.639 C93.863,34.290 91.885,33.425 91.100,32.504 C90.107,31.337 89.131,31.684 88.168,32.658 C85.021,35.841 81.844,38.994 78.687,42.166 C77.927,42.931 77.584,43.738 78.278,44.793 ZM100.309,21.182 C99.421,20.943 93.712,26.713 93.935,27.643 C94.333,29.307 95.968,31.368 97.056,30.732 C99.659,29.212 101.714,26.754 104.105,24.569 C102.773,23.202 101.992,21.634 100.309,21.182 ZM81.498,53.659 C79.826,55.301 80.627,56.466 81.422,57.916 C85.472,65.310 89.461,72.739 93.558,80.107 C95.369,83.364 94.847,85.004 90.829,84.996 C73.013,84.959 55.195,84.936 37.379,85.015 C33.942,85.030 32.769,83.786 34.041,80.547 C38.854,68.290 43.603,56.006 48.564,43.808 C50.100,40.030 51.676,40.007 53.943,43.510 C56.806,47.934 59.472,52.484 62.807,57.934 C68.344,41.847 82.594,33.909 92.748,20.980 C75.525,20.980 59.556,20.980 43.588,20.981 C41.756,20.981 39.914,20.862 38.095,21.011 C29.115,21.744 21.091,30.266 21.010,39.380 C20.896,52.200 20.902,65.023 21.007,77.844 C21.089,87.948 29.350,96.001 39.455,96.014 C55.607,96.035 71.759,96.026 87.911,96.016 C98.931,96.010 106.967,88.009 107.008,76.922 C107.053,64.600 106.999,52.278 107.031,39.956 C107.040,36.790 106.237,33.929 104.333,30.727 C96.514,38.608 89.080,46.209 81.498,53.659 ZM109.437,13.081 C107.066,13.458 104.891,14.900 104.374,17.170 C104.038,18.641 106.427,20.687 107.404,20.444 C109.605,19.898 110.958,17.757 111.805,15.378 C111.791,13.932 110.940,12.841 109.437,13.081 Z" class="cls-1"/>
        </symbol>
        <symbol id="icon-packaging" viewBox="0 0 109.781 82">
            <title>packaging</title>
            <path d="M53.853,82.000 C43.619,76.737 32.641,73.279 21.950,69.156 C18.005,67.634 16.513,65.860 16.744,61.677 C17.093,55.372 16.720,49.031 16.891,42.712 C16.960,40.199 16.185,38.843 13.783,37.960 C10.382,36.709 7.073,35.176 3.827,33.558 C2.440,32.867 0.029,32.887 0.016,30.921 C0.001,28.665 2.549,28.723 4.078,27.976 C7.297,26.403 10.584,24.971 14.334,23.256 C10.953,20.529 7.096,19.998 3.906,18.167 C3.045,17.673 1.953,17.526 1.940,16.267 C1.926,14.895 3.253,14.866 4.045,14.529 C14.361,10.146 24.721,5.869 35.040,1.494 C37.115,0.614 39.011,1.010 40.743,2.033 C50.449,7.768 59.980,7.328 69.415,1.431 C70.219,0.928 71.464,1.180 71.870,0.000 C72.537,0.000 73.205,0.000 73.872,0.000 C75.034,1.822 77.158,2.021 78.880,2.778 C87.487,6.564 96.167,10.186 104.834,13.835 C106.028,14.338 107.770,14.421 107.677,16.083 C107.589,17.652 105.791,17.604 104.683,18.237 C101.869,19.846 98.442,20.230 95.751,22.633 C99.458,25.263 103.681,26.298 107.466,28.223 C108.387,28.691 109.998,28.802 109.776,30.387 C109.625,31.467 108.541,31.757 107.587,32.161 C104.398,33.512 101.356,35.273 98.084,36.353 C93.834,37.755 92.100,40.100 92.507,44.749 C92.985,50.204 92.365,55.748 92.699,61.225 C92.964,65.551 91.435,67.574 87.286,69.202 C76.760,73.332 65.925,76.748 55.854,82.000 C55.187,82.000 54.520,82.000 53.853,82.000 ZM55.869,40.610 C55.869,52.823 55.870,64.250 55.868,75.678 C55.867,78.880 57.518,78.072 59.447,77.298 C68.626,73.616 77.796,69.901 87.076,66.488 C89.487,65.601 89.972,64.333 89.937,62.109 C89.843,56.115 89.787,50.115 89.950,44.123 C90.043,40.675 88.806,40.577 86.157,41.914 C82.771,43.622 79.165,44.901 75.808,46.659 C73.060,48.098 70.673,48.185 67.918,46.616 C64.259,44.533 60.381,42.833 55.869,40.610 ZM19.805,40.722 C19.805,48.597 19.864,55.732 19.768,62.864 C19.741,64.888 20.594,65.663 22.413,66.350 C31.639,69.834 40.853,73.364 49.950,77.167 C53.236,78.540 53.926,77.735 53.885,74.487 C53.763,64.855 53.647,55.216 53.931,45.592 C54.070,40.878 52.514,40.402 49.231,42.988 C41.737,48.890 34.199,48.855 26.352,43.739 C24.606,42.600 22.535,41.959 19.805,40.722 ZM87.753,23.022 C78.769,19.426 70.743,16.560 63.031,13.011 C57.404,10.422 52.393,10.368 46.745,13.002 C38.924,16.650 30.764,19.571 21.649,23.246 C33.001,27.964 43.199,32.112 53.299,36.486 C55.058,37.247 56.210,36.490 57.488,35.951 C67.206,31.854 76.890,27.676 87.753,23.022 ZM51.743,38.542 C42.550,34.703 34.518,31.321 26.464,27.992 C17.588,24.323 13.192,24.965 4.911,31.255 C15.623,35.991 26.157,40.609 36.642,45.337 C37.751,45.837 38.443,45.631 39.358,45.134 C43.113,43.095 46.899,41.113 51.743,38.542 ZM58.564,8.607 C67.852,12.345 76.181,15.054 83.887,18.984 C91.343,22.786 96.545,18.585 103.503,15.839 C93.235,11.547 84.017,7.709 74.816,3.829 C73.586,3.310 72.517,2.730 71.076,3.371 C67.342,5.032 63.539,6.540 58.564,8.607 ZM51.291,8.652 C45.103,6.845 40.701,2.490 35.717,4.188 C25.957,7.513 16.596,12.011 6.776,16.146 C13.770,20.766 20.147,22.265 27.759,18.199 C34.766,14.457 42.531,12.130 51.291,8.652 ZM58.517,38.445 C65.551,43.225 72.092,47.573 80.261,41.872 C80.923,41.411 81.725,41.147 82.471,40.810 C90.664,37.116 90.531,37.125 89.985,28.015 C89.821,25.288 88.696,25.452 86.967,26.192 C77.622,30.188 68.295,34.228 58.517,38.445 ZM93.148,35.673 C97.293,34.384 101.013,32.583 105.391,30.145 C100.978,28.207 97.278,26.582 93.148,24.768 C93.148,28.672 93.148,32.049 93.148,35.673 Z" class="cls-1"/>
        </symbol>
        <symbol id="icon-reassembly" viewBox="0 0 119.594 119.938">
            <title>reassembly</title>
            <path d="M107.116,30.266 C105.466,30.460 104.860,31.986 104.210,33.385 C100.731,40.869 97.212,48.334 93.663,55.784 C92.692,57.823 92.562,59.578 93.528,61.856 C97.233,70.588 93.327,79.049 84.527,82.248 C83.113,82.762 81.845,83.697 80.504,82.233 C79.114,80.716 80.971,79.943 81.259,78.805 C81.874,76.377 84.743,74.492 83.062,71.511 C82.169,69.928 82.551,66.803 79.915,67.274 C77.609,67.686 74.367,67.424 73.473,70.857 C73.309,71.486 73.013,72.122 72.628,72.643 C71.514,74.152 71.820,77.333 69.305,77.017 C66.694,76.688 66.407,73.611 65.949,71.545 C64.100,63.196 68.038,56.773 76.446,53.983 C78.582,53.274 79.985,52.172 80.972,49.944 C84.315,42.408 87.920,34.986 91.553,27.584 C92.586,25.479 92.496,23.771 91.568,21.584 C87.923,12.995 93.158,3.178 102.221,1.219 C103.332,0.979 104.669,0.580 105.399,1.722 C105.950,2.585 105.186,3.517 104.819,4.455 C103.691,7.339 100.637,9.930 102.781,13.444 C103.548,14.701 103.354,17.476 105.629,16.830 C107.676,16.248 110.442,16.713 111.629,14.068 C111.899,13.467 112.197,12.869 112.560,12.323 C113.695,10.614 113.313,7.513 115.770,7.195 C118.968,6.780 117.503,11.001 119.592,12.015 C119.592,14.350 119.592,16.686 119.592,19.022 C117.002,24.521 113.953,29.459 107.116,30.266 ZM76.630,56.667 C71.098,58.554 66.472,65.343 69.604,71.331 C72.612,66.782 80.013,62.781 82.703,64.249 C85.164,65.593 86.728,73.980 84.963,78.436 C91.238,75.126 93.525,68.654 90.878,63.116 C88.096,57.296 82.157,54.782 76.630,56.667 ZM84.599,49.264 C83.994,50.564 82.372,52.383 83.215,53.136 C84.832,54.579 87.202,55.172 89.030,56.012 C90.352,56.152 90.589,55.367 90.952,54.599 C94.384,47.323 97.962,40.114 101.262,32.778 C103.092,28.709 98.529,29.751 97.130,28.264 C95.606,26.644 94.488,27.911 93.716,29.605 C90.720,36.178 87.643,42.714 84.599,49.264 ZM115.724,12.943 C113.207,19.103 107.817,19.673 102.878,20.236 C100.767,20.477 99.055,9.919 100.589,5.031 C93.597,8.825 91.349,14.293 93.898,20.396 C96.226,25.969 102.906,28.877 108.798,26.881 C114.010,25.116 117.148,19.260 115.724,12.943 ZM67.644,21.133 C63.330,21.239 59.010,21.235 54.696,21.152 C52.608,21.112 51.588,21.843 51.722,24.029 C51.804,25.358 51.901,26.722 51.699,28.025 C50.898,33.181 52.340,36.009 58.169,34.900 C60.940,34.372 62.054,35.674 61.829,38.534 C61.621,41.186 61.638,43.877 61.824,46.532 C62.071,50.043 61.958,52.958 57.123,52.085 C55.834,51.852 54.640,52.406 54.867,53.943 C55.226,56.378 53.419,59.221 56.166,61.222 C63.887,66.848 63.956,69.039 57.017,75.387 C54.429,77.754 56.328,81.091 55.797,83.932 C54.842,89.037 56.923,90.540 61.977,90.209 C69.086,89.745 76.249,89.993 83.384,90.138 C86.316,90.198 88.259,89.815 87.781,86.166 C87.638,85.073 87.100,83.110 89.283,83.242 C91.329,83.367 90.627,85.229 90.634,86.382 C90.694,96.386 90.700,106.391 90.634,116.395 C90.625,117.706 91.390,119.867 89.079,119.894 C87.044,119.919 87.685,117.901 87.777,116.785 C88.031,113.731 86.479,113.202 83.884,113.208 C58.151,113.265 32.419,113.296 6.687,113.178 C3.395,113.163 2.656,114.526 2.936,117.369 C3.051,118.528 2.959,119.967 1.358,119.934 C-0.402,119.897 0.050,118.292 0.046,117.253 C0.006,106.749 0.007,96.244 0.047,85.739 C0.051,84.713 -0.414,83.156 1.484,83.200 C3.266,83.241 3.092,84.742 2.921,85.773 C2.214,90.047 4.663,90.215 7.884,90.144 C15.185,89.982 22.505,89.836 29.792,90.190 C34.103,90.400 35.438,88.823 34.909,84.792 C34.694,83.152 34.823,81.460 34.882,79.794 C34.960,77.555 34.612,76.055 32.262,74.591 C27.056,71.348 27.318,64.750 32.880,62.198 C37.640,60.014 35.493,56.457 35.721,53.376 C35.844,51.708 34.060,51.932 33.035,52.086 C29.267,52.651 28.448,50.754 28.850,47.507 C29.012,46.194 28.874,44.843 28.875,43.509 C28.878,35.812 28.869,35.729 36.521,34.913 C38.617,34.689 39.537,33.884 39.497,31.847 C39.494,31.680 39.494,31.513 39.508,31.347 C40.342,21.192 40.342,21.193 30.198,21.189 C28.039,21.188 25.880,21.211 23.723,21.159 C16.411,20.983 12.927,17.546 12.966,10.588 C13.005,3.879 16.927,0.067 23.926,0.031 C31.064,-0.007 38.203,0.022 45.342,0.023 C52.646,0.023 59.952,-0.030 67.256,0.039 C73.981,0.102 77.711,3.870 77.757,10.467 C77.806,17.468 74.543,20.965 67.644,21.133 ZM33.462,93.122 C27.492,92.956 21.514,93.073 15.540,93.075 C2.854,93.079 3.055,93.083 2.866,105.665 C2.803,109.883 4.367,110.593 8.027,110.542 C20.472,110.367 32.920,110.475 45.367,110.476 C55.158,110.476 64.950,110.478 74.741,110.475 C88.001,110.470 87.866,110.469 87.775,97.070 C87.751,93.617 86.546,92.950 83.462,93.013 C74.836,93.189 66.200,92.918 57.576,93.145 C53.811,93.244 52.508,91.894 52.788,88.220 C53.028,85.072 52.801,81.890 52.850,78.723 C52.876,77.034 52.561,76.080 50.506,75.766 C39.172,74.039 37.859,75.072 37.850,86.364 C37.850,87.198 37.774,88.039 37.862,88.863 C38.221,92.217 36.610,93.210 33.462,93.122 ZM31.863,68.174 C31.629,70.902 32.981,72.238 35.489,72.513 C41.933,73.220 48.388,73.247 54.838,72.557 C57.244,72.299 58.906,71.286 58.822,68.486 C58.736,65.590 57.122,64.259 54.437,64.165 C51.454,64.062 48.465,64.142 45.479,64.130 C42.327,64.130 39.172,64.035 36.025,64.160 C33.574,64.258 32.088,65.550 31.863,68.174 ZM52.038,56.818 C51.987,51.021 48.458,52.597 45.460,52.393 C44.966,52.359 44.457,52.456 43.974,52.378 C39.789,51.701 38.667,53.538 38.735,57.629 C38.835,63.726 43.318,59.863 45.184,61.137 C48.312,60.708 52.091,62.816 52.038,56.818 ZM39.764,37.769 C31.733,37.281 31.884,37.095 31.800,44.887 C31.767,47.979 32.399,49.457 35.830,49.132 C38.940,48.838 42.100,49.070 45.238,49.070 C47.385,49.070 49.532,49.070 51.679,49.070 C59.002,49.070 58.794,49.066 58.909,41.620 C58.962,38.147 57.640,37.405 54.584,37.558 C49.651,37.806 44.684,38.068 39.764,37.769 ZM48.770,28.337 C48.770,27.588 48.761,27.092 48.772,26.597 C48.825,24.107 49.284,21.709 45.251,21.816 C41.429,21.917 42.128,24.275 42.093,26.497 C42.069,27.983 42.047,29.473 42.125,30.956 C42.181,32.035 41.700,33.596 43.224,33.862 C44.796,34.136 46.913,34.486 47.984,33.697 C49.692,32.439 48.458,29.992 48.770,28.337 ZM74.762,9.770 C74.523,5.434 71.762,3.028 66.822,2.998 C59.700,2.954 52.578,2.987 45.456,2.987 C38.333,2.987 31.211,2.960 24.089,2.996 C19.026,3.022 16.074,5.648 15.926,10.143 C15.749,15.526 17.931,18.292 23.494,18.368 C38.212,18.569 52.939,18.575 67.657,18.330 C73.069,18.241 75.071,15.378 74.762,9.770 Z" class="cls-1"/>
        </symbol>
        <symbol id="icon-forword" viewBox="0 0 96 96">
            <title>arrow forword</title>
            <path d="M12,52h62.344L52.888,73.456c-1.562,1.562-1.562,4.095-0.001,5.656c1.562,1.562,4.096,1.562,5.658,0l28.283-28.284l0,0  c0.186-0.186,0.352-0.391,0.498-0.609c0.067-0.101,0.114-0.21,0.172-0.315c0.066-0.124,0.142-0.242,0.195-0.373  c0.057-0.135,0.089-0.275,0.129-0.415c0.033-0.111,0.076-0.217,0.099-0.331C87.973,48.525,88,48.263,88,48l0,0  c0-0.003-0.001-0.006-0.001-0.009c-0.001-0.259-0.027-0.519-0.078-0.774c-0.024-0.12-0.069-0.231-0.104-0.349  c-0.039-0.133-0.069-0.268-0.123-0.397c-0.058-0.139-0.136-0.265-0.208-0.396c-0.054-0.098-0.097-0.198-0.159-0.292  c-0.146-0.221-0.314-0.427-0.501-0.614L58.544,16.888c-1.562-1.562-4.095-1.562-5.657-0.001c-1.562,1.562-1.562,4.095,0,5.658  L74.343,44L12,44c-2.209,0-4,1.791-4,4C8,50.209,9.791,52,12,52z"/>
        </symbol>
        <symbol id="icon-phone" viewBox="0 0 16.877 16.877">
            <path d="M5.301,5.587L1.404,1.688c0.503-0.503,1.005-1.007,1.509-1.511C3.146-0.056,3.522-0.06,3.756,0.17l3.036,3.039
            c0.232,0.232,0.232,0.614-0.003,0.848L6.124,4.721L5.505,5.34C5.429,5.417,5.36,5.499,5.301,5.587z M8.507,11.938
            c-0.638-0.549-1.25-1.132-1.844-1.725C6.07,9.616,5.489,9.006,4.939,8.365c-0.45-0.52-0.538-1.273-0.303-1.907L0.636,2.457
            c-0.931,0.957-0.812,3.33,0.208,5.415c0.438,0.902,1.006,1.716,1.593,2.49c0.586,0.768,1.229,1.494,1.906,2.176
            c0.679,0.681,1.401,1.327,2.171,1.913c0.774,0.589,1.59,1.153,2.486,1.59c2.088,1.019,4.462,1.131,5.418,0.199l-4.001-4.001
            C9.783,12.474,9.029,12.387,8.507,11.938z M16.702,13.119l-3.036-3.037c-0.233-0.23-0.615-0.23-0.848,0.003h-0.002l-0.667,0.666
            l-0.615,0.618c-0.076,0.076-0.159,0.143-0.247,0.205l3.896,3.898c0.504-0.505,1.007-1.007,1.512-1.51
            C16.93,13.729,16.935,13.352,16.702,13.119z"/>
        </symbol>
        <symbol id="icon-location" viewBox="0 0 430.114 430.114">
            <path d="M356.208,107.051c-1.531-5.738-4.64-11.852-6.94-17.205C321.746,23.704,261.611,0,213.055,0
            C148.054,0,76.463,43.586,66.905,133.427v18.355c0,0.766,0.264,7.647,0.639,11.089c5.358,42.816,39.143,88.32,64.375,131.136
            c27.146,45.873,55.314,90.999,83.221,136.106c17.208-29.436,34.354-59.259,51.17-87.933c4.583-8.415,9.903-16.825,14.491-24.857
            c3.058-5.348,8.9-10.696,11.569-15.672c27.145-49.699,70.838-99.782,70.838-149.104v-20.262
            C363.209,126.938,356.581,108.204,356.208,107.051z M214.245,199.193c-19.107,0-40.021-9.554-50.344-35.939
            c-1.538-4.2-1.414-12.617-1.414-13.388v-11.852c0-33.636,28.56-48.932,53.406-48.932c30.588,0,54.245,24.472,54.245,55.06
            C270.138,174.729,244.833,199.193,214.245,199.193z"/>
        </symbol>
        <symbol id="icon-mail" viewBox="0 0 512.001 512.001">
            <path d="M511.646,126.634c-0.021-14.449-11.782-26.189-26.227-26.189c-0.012,0-0.024,0-0.034,0L26.19,101.076
			c-7.005,0.009-13.588,2.746-18.535,7.706C2.709,113.743-0.009,120.334,0,127.337l0.355,258.029
			c0.009,7.005,2.746,13.588,7.706,18.535c4.951,4.938,11.526,7.655,18.519,7.655c0.012,0,0.025,0,0.035,0l459.194-0.631
			c14.458-0.02,26.207-11.799,26.19-26.261L511.646,126.634z M456.611,126.71L256.02,266.154L55.04,127.262L456.611,126.71z
			 M340.846,292.471l118.971,92.265l-407.972,0.56l119.696-92.825c5.722-4.439,6.764-12.675,2.326-18.399
			c-4.439-5.722-12.675-6.764-18.399-2.326L26.561,371.715l-0.32-232.475l222.344,153.657c2.244,1.551,4.849,2.325,7.455,2.325
			c2.617,0,5.236-0.783,7.485-2.346l221.912-154.264l0.336,233.066l-128.856-99.931c-5.719-4.437-13.959-3.396-18.397,2.326
			C334.081,279.795,335.122,288.033,340.846,292.471z"/>
        </symbol>
        <symbol id="icon-close" viewBox="0 0 24 24">
            <path d="M19 6.41L17.59 5 12 10.59 6.41 5 5 6.41 10.59 12 5 17.59 6.41 19 12 13.41 17.59 19 19 17.59 13.41 12z"/>
            <path d="M0 0h24v24H0z" fill="none"/>
        </symbol>
        <symbol id="icon-arrow" viewBox="0 0 292.359 292.359">
            <path d="M222.979,133.331L95.073,5.424C91.456,1.807,87.178,0,82.226,0c-4.952,0-9.233,1.807-12.85,5.424
                c-3.617,3.617-5.424,7.898-5.424,12.847v255.813c0,4.948,1.807,9.232,5.424,12.847c3.621,3.617,7.902,5.428,12.85,5.428
                c4.949,0,9.23-1.811,12.847-5.428l127.906-127.907c3.614-3.613,5.428-7.897,5.428-12.847
                C228.407,141.229,226.594,136.948,222.979,133.331z"/>
        </symbol>
        <symbol id="icon-arrow-bottom" viewBox="0 0 292.362 292.362">
            <path d="M286.935,69.377c-3.614-3.617-7.898-5.424-12.848-5.424H18.274c-4.952,0-9.233,1.807-12.85,5.424
                C1.807,72.998,0,77.279,0,82.228c0,4.948,1.807,9.229,5.424,12.847l127.907,127.907c3.621,3.617,7.902,5.428,12.85,5.428
                s9.233-1.811,12.847-5.428L286.935,95.074c3.613-3.617,5.427-7.898,5.427-12.847C292.362,77.279,290.548,72.998,286.935,69.377z"/>
        </symbol>
    </defs>
</svg>
