<svg style="position:absolute;width:0;height:0;overflow:hidden" version="1.1" 
    xmlns="http://www.w3.org/2000/svg" 
    xmlns:xlink="http://www.w3.org/1999/xlink">
    <defs>
        <symbol id="icon-calender" viewBox="0 0 512 512">
            <path d="M452,40h-24V0h-40v40H124V0H84v40H60C26.916,40,0,66.916,0,100v352c0,33.084,26.916,60,60,60h392    c33.084,0,60-26.916,60-60V100C512,66.916,485.084,40,452,40z M472,452c0,11.028-8.972,20-20,20H60c-11.028,0-20-8.972-20-20V188    h432V452z M472,148H40v-48c0-11.028,8.972-20,20-20h24v40h40V80h264v40h40V80h24c11.028,0,20,8.972,20,20V148z"/>
            <rect x="76" y="230" width="40" height="40"/>
            <rect x="156" y="230" width="40" height="40"/>
            <rect x="236" y="230" width="40" height="40"/>
            <rect x="316" y="230" width="40" height="40"/>
            <rect x="396" y="230" width="40" height="40"/>
            <rect x="76" y="310" width="40" height="40"/>
            <rect x="156" y="310" width="40" height="40"/>
            <rect x="236" y="310" width="40" height="40"/>
            <rect x="316" y="310" width="40" height="40"/>
            <rect x="76" y="390" width="40" height="40"/>
            <rect x="156" y="390" width="40" height="40"/>
            <rect x="236" y="390" width="40" height="40"/>
            <rect x="316" y="390" width="40" height="40"/>
            <rect x="396" y="310" width="40" height="40"/>
        </symbol>
        <symbol id="icon-help" viewBox="0 0 24 24">
            <path d="M0 0h24v24H0z" fill="none"/>
            <path d="M19 2H5c-1.11 0-2 .9-2 2v14c0 1.1.89 2 2 2h4l3 3 3-3h4c1.1 0 2-.9 2-2V4c0-1.1-.9-2-2-2zm-6 16h-2v-2h2v2zm2.07-7.75l-.9.92C13.45 11.9 13 12.5 13 14h-2v-.5c0-1.1.45-2.1 1.17-2.83l1.24-1.26c.37-.36.59-.86.59-1.41 0-1.1-.9-2-2-2s-2 .9-2 2H8c0-2.21 1.79-4 4-4s4 1.79 4 4c0 .88-.36 1.68-.93 2.25z"/>
        </symbol>
        <symbol id="icon-phone" viewBox="0 0 19.156 18.844">
            <path d="M339.326,32.242a0.4,0.4,0,0,0,.09-0.523l-3.259-5.192a0.41,0.41,0,0,0-.472-0.171l-1.541.489,3.949,6.38Zm3.748,7.1c-0.158.415-.246,0.553-0.452,0.553-0.335,0-1.218-.317-3.378-2.442-2.391-2.352-2.527-3.162-2.475-3.4a0.778,0.778,0,0,1,.555-0.367l0.081-.03-4.024-6.5a4.975,4.975,0,0,0-1.81,2.625c-0.321.973-.911,4.593,4.947,10.355,4.249,4.179,7.337,5.056,9.179,5.056A4.455,4.455,0,0,0,347.045,45a5.065,5.065,0,0,0,2.669-1.781l-6.609-3.958C343.1,39.289,343.085,39.316,343.074,39.343Zm7.279,1.147-5.279-3.205a0.411,0.411,0,0,0-.531.089l-1,1.213,6.486,3.884,0.5-1.517A0.4,0.4,0,0,0,350.353,40.489Z" transform="translate(-331.375 -26.344)"/>
        </symbol>
        <symbol id="icon-folder" viewBox="0 0 30 28">
            <path d="M27.828 14.547c0-0.438-0.484-0.547-0.828-0.547h-17c-0.828 0-1.922 0.516-2.453 1.156l-4.594 5.672c-0.141 0.187-0.281 0.391-0.281 0.625 0 0.438 0.484 0.547 0.828 0.547h17c0.828 0 1.922-0.516 2.453-1.172l4.594-5.672c0.141-0.172 0.281-0.375 0.281-0.609zM10 12h12v-2.5c0-0.828-0.672-1.5-1.5-1.5h-9c-0.828 0-1.5-0.672-1.5-1.5v-1c0-0.828-0.672-1.5-1.5-1.5h-5c-0.828 0-1.5 0.672-1.5 1.5v13.328l4-4.922c0.906-1.109 2.578-1.906 4-1.906zM29.828 14.547c0 0.688-0.297 1.344-0.719 1.875l-4.609 5.672c-0.891 1.094-2.594 1.906-4 1.906h-17c-1.922 0-3.5-1.578-3.5-3.5v-15c0-1.922 1.578-3.5 3.5-3.5h5c1.922 0 3.5 1.578 3.5 3.5v0.5h8.5c1.922 0 3.5 1.578 3.5 3.5v2.5h3c1.062 0 2.125 0.484 2.594 1.484 0.156 0.328 0.234 0.688 0.234 1.062z"/>
        </symbol>
        <symbol id="icon-contact" viewBox="0 0 24 24">
            <path xmlns="http://www.w3.org/2000/svg" d="M12 2C6.48 2 2 6.48 2 12s4.48 10 10 10h5v-2h-5c-4.34 0-8-3.66-8-8s3.66-8 8-8 8 3.66 8 8v1.43c0 .79-.71 1.57-1.5 1.57s-1.5-.78-1.5-1.57V12c0-2.76-2.24-5-5-5s-5 2.24-5 5 2.24 5 5 5c1.38 0 2.64-.56 3.54-1.47.65.89 1.77 1.47 2.96 1.47 1.97 0 3.5-1.6 3.5-3.57V12c0-5.52-4.48-10-10-10zm0 13c-1.66 0-3-1.34-3-3s1.34-3 3-3 3 1.34 3 3-1.34 3-3 3z"/>
        </symbol>
        <symbol id="icon-search" viewBox="0 0 512 512">
            <path d="M505 442.7L405.3 343c-4.5-4.5-10.6-7-17-7H372c27.6-35.3 44-79.7 44-128C416 93.1 322.9 0 208 0S0 93.1 0 208s93.1 208 208 208c48.3 0 92.7-16.4 128-44v16.3c0 6.4 2.5 12.5 7 17l99.7 99.7c9.4 9.4 24.6 9.4 33.9 0l28.3-28.3c9.4-9.4 9.4-24.6.1-34zM208 336c-70.7 0-128-57.2-128-128 0-70.7 57.2-128 128-128 70.7 0 128 57.2 128 128 0 70.7-57.2 128-128 128z"/>
        </symbol>
       
        <symbol id="icon-clock" viewBox="0 0 512 512">
            <path d="M256 8C119 8 8 119 8 256s111 248 248 248 248-111 248-248S393 8 256 8zm0 448c-110.5 0-200-89.5-200-200S145.5 56 256 56s200 89.5 200 200-89.5 200-200 200zm61.8-104.4l-84.9-61.7c-3.1-2.3-4.9-5.9-4.9-9.7V116c0-6.6 5.4-12 12-12h32c6.6 0 12 5.4 12 12v141.7l66.8 48.6c5.4 3.9 6.5 11.4 2.6 16.8L334.6 349c-3.9 5.3-11.4 6.5-16.8 2.6z"/>
        </symbol>
        <symbol id="icon-list" viewBox="0 0 512 512">
            <path d="M80 368H16a16 16 0 0 0-16 16v64a16 16 0 0 0 16 16h64a16 16 0 0 0 16-16v-64a16 16 0 0 0-16-16zm0-320H16A16 16 0 0 0 0 64v64a16 16 0 0 0 16 16h64a16 16 0 0 0 16-16V64a16 16 0 0 0-16-16zm0 160H16a16 16 0 0 0-16 16v64a16 16 0 0 0 16 16h64a16 16 0 0 0 16-16v-64a16 16 0 0 0-16-16zm416 176H176a16 16 0 0 0-16 16v32a16 16 0 0 0 16 16h320a16 16 0 0 0 16-16v-32a16 16 0 0 0-16-16zm0-320H176a16 16 0 0 0-16 16v32a16 16 0 0 0 16 16h320a16 16 0 0 0 16-16V80a16 16 0 0 0-16-16zm0 160H176a16 16 0 0 0-16 16v32a16 16 0 0 0 16 16h320a16 16 0 0 0 16-16v-32a16 16 0 0 0-16-16z"/>
        </symbol>
        <symbol id="icon-user" viewBox="0 0 448 512">
            <path d="M224 256c70.7 0 128-57.3 128-128S294.7 0 224 0 96 57.3 96 128s57.3 128 128 128zm89.6 32h-16.7c-22.2 10.2-46.9 16-72.9 16s-50.6-5.8-72.9-16h-16.7C60.2 288 0 348.2 0 422.4V464c0 26.5 21.5 48 48 48h352c26.5 0 48-21.5 48-48v-41.6c0-74.2-60.2-134.4-134.4-134.4z"/>
        </symbol>
        <symbol id="icon-grid" viewBox="0 0 512 512">
            <path d="M296 32h192c13.255 0 24 10.745 24 24v160c0 13.255-10.745 24-24 24H296c-13.255 0-24-10.745-24-24V56c0-13.255 10.745-24 24-24zm-80 0H24C10.745 32 0 42.745 0 56v160c0 13.255 10.745 24 24 24h192c13.255 0 24-10.745 24-24V56c0-13.255-10.745-24-24-24zM0 296v160c0 13.255 10.745 24 24 24h192c13.255 0 24-10.745 24-24V296c0-13.255-10.745-24-24-24H24c-13.255 0-24 10.745-24 24zm296 184h192c13.255 0 24-10.745 24-24V296c0-13.255-10.745-24-24-24H296c-13.255 0-24 10.745-24 24v160c0 13.255 10.745 24 24 24z"/>
        </symbol>
         <symbol id="icon-images" viewBox="0 0 69.91 69.94">
            <path d="M1621.46,5486.11v-34.96a1.169,1.169,0,0,0-1.17-1.16h-19.8v-2.33a7,7,0,0,0-6.99-6.99h-2.33v-0.59a4.084,4.084,0,0,0-4.08-4.08,36.808,36.808,0,0,0-11.15,1.73l-19.39,5.82a6.948,6.948,0,0,0-4.99,6.7v41.15a7,7,0,0,0,4.48,6.52l15.69,6.91a17.083,17.083,0,0,0,6.04,1.1,4.084,4.084,0,0,0,4.08-4.08v-2.91h11.65c3.76,0,6.33-1.8,6.87-4.67h19.92a1.169,1.169,0,0,0,1.17-1.16v-7Zm-2.33-2.81-11.99-11.99a1.159,1.159,0,0,0-1.65,0l-6.16,6.17-8.5-8.5a1.147,1.147,0,0,0-1.64,0l-7.34,7.33v-13.5a1.723,1.723,0,0,1,1.14-1.64l5.39-1.48a4.084,4.084,0,0,0,2.79-3.87v-3.5h27.96v30.98ZM1593.5,5443a4.665,4.665,0,0,1,4.66,4.66v2.33h-6.99V5443h2.33Zm-13.98,58.85a1.752,1.752,0,0,1-1.75,1.75,14.831,14.831,0,0,1-5.16-.92l-15.69-6.91a4.7,4.7,0,0,1-3.03-4.37v-41.15a4.644,4.644,0,0,1,3.32-4.47l19.4-5.82a34.567,34.567,0,0,1,10.48-1.62,1.743,1.743,0,0,1,1.75,1.74v15.74a1.738,1.738,0,0,1-1.13,1.64l-5.4,1.48a4.075,4.075,0,0,0-2.79,3.87v39.04Zm13.98-5.25h-11.65v-2.33h16.12C1597.26,5496.34,1594.7,5496.6,1593.5,5496.6Zm-11.65-4.66v-12.33l8.16-8.16,8.49,8.5a1.177,1.177,0,0,0,1.65,0l6.16-6.17,12.82,12.82v5.34h-37.28Zm25.63-25.64a4.66,4.66,0,1,0-4.66-4.66A4.665,4.665,0,0,0,1607.48,5466.3Zm0-6.99a2.33,2.33,0,1,1-2.33,2.33A2.339,2.339,0,0,1,1607.48,5459.31Z" transform="translate(-1551.56 -5436)"/>
        </symbol>
        <symbol id="icon-check" viewBox="0 0 512 512">
            <path d="M504 256c0 136.967-111.033 248-248 248S8 392.967 8 256 119.033 8 256 8s248 111.033 248 248zM227.314 387.314l184-184c6.248-6.248 6.248-16.379 0-22.627l-22.627-22.627c-6.248-6.249-16.379-6.249-22.628 0L216 308.118l-70.059-70.059c-6.248-6.248-16.379-6.248-22.628 0l-22.627 22.627c-6.248 6.248-6.248 16.379 0 22.627l104 104c6.249 6.249 16.379 6.249 22.628.001z"/>
        </symbol>
        <symbol id="icon-notebook" viewBox="0 0 386.183 386.183">
            <g>
                <path d="M287.191,61.03H183.812v92.86c0,3.004-1.785,5.723-4.544,6.915c-0.961,0.415-1.979,0.618-2.987,0.618
		c-1.882,0-3.738-0.706-5.164-2.047L147.652,137.3l-23.464,22.076c-2.188,2.059-5.392,2.621-8.15,1.429
		c-2.76-1.192-4.544-3.911-4.544-6.915V61.03H92.238c-6.549,0-11.878-5.332-11.878-11.881c0-6.551,5.329-11.881,11.878-11.881
		h212.619c10.273,0,18.635-8.359,18.635-18.635S315.131,0,304.857,0H92.237c-27.1,0-49.146,22.049-49.146,49.148v281.135
		c0,30.823,25.077,55.899,55.9,55.899h188.2c30.823,0,55.9-25.076,55.9-55.899V116.928C343.091,86.108,318.014,61.03,287.191,61.03z
		"/>
            </g>
        </symbol>
        <symbol id="icon-text" viewBox="0 0 24 24">
            <path d="m4 6.75c0-2.619 2.131-4.75 4.75-4.75h9.133c-.329-1.151-1.378-2-2.633-2h-11.5c-1.517 0-2.75 1.233-2.75 2.75v15.5c0 1.517 1.233 2.75 2.75 2.75h.25z"/>
            <path d="m20.25 4h-11.5c-1.517 0-2.75 1.233-2.75 2.75v14.5c0 1.517 1.233 2.75 2.75 2.75h11.5c1.517 0 2.75-1.233 2.75-2.75v-14.5c0-1.517-1.233-2.75-2.75-2.75zm-2 17h-7.5c-.414 0-.75-.336-.75-.75s.336-.75.75-.75h7.5c.414 0 .75.336.75.75s-.336.75-.75.75zm0-4h-7.5c-.414 0-.75-.336-.75-.75s.336-.75.75-.75h7.5c.414 0 .75.336.75.75s-.336.75-.75.75zm0-3.5h-7.5c-.414 0-.75-.336-.75-.75s.336-.75.75-.75h7.5c.414 0 .75.336.75.75s-.336.75-.75.75zm0-4h-7.5c-.414 0-.75-.336-.75-.75s.336-.75.75-.75h7.5c.414 0 .75.336.75.75s-.336.75-.75.75z"/>
        </symbol>
        <symbol id="icon-offer" viewBox="0 0 512.02 512.02">
            <g>
                <g>
                    <path d="M499.01,289.316c5.792-8.876,13-19.92,13-33.296c0-13.392-7.208-24.436-13-33.32c-3.248-4.96-6.608-10.1-7.284-13.564
			c-0.748-3.788,0.416-10.016,1.544-16.04c2.016-10.796,4.312-23.04-0.676-35.08c-5.072-12.228-15.456-19.32-24.616-25.572
			c-4.964-3.392-10.104-6.908-12.14-9.944c-2.088-3.116-3.384-9.264-4.648-15.212c-2.276-10.788-4.864-23.016-14.14-32.304
			c-9.28-9.28-21.52-11.868-32.308-14.148c-5.94-1.256-12.084-2.556-15.2-4.632c-3.044-2.048-6.548-7.188-9.936-12.148
			c-6.252-9.164-13.344-19.548-25.58-24.616c-4.856-2.016-10.128-3-16.128-3c-6.6,0-12.88,1.18-18.948,2.312
			c-4.888,0.916-9.504,1.772-13.2,1.772c-1.096,0-2.052-0.08-2.836-0.228c-3.464-0.696-8.604-4.048-13.58-7.288
			C280.458,7.22,269.414,0,256.026,0s-24.432,7.22-33.308,13.008c-4.972,3.244-10.112,6.592-13.572,7.288
			c-0.784,0.148-1.748,0.228-2.844,0.228c-3.696,0-8.312-0.86-13.2-1.772c-6.08-1.132-12.348-2.312-18.948-2.312
			c-6,0-11.28,0.992-16.12,3c-12.236,5.072-19.324,15.452-25.584,24.608c-3.396,4.968-6.908,10.108-9.94,12.148
			c-3.112,2.084-9.256,3.384-15.2,4.64c-10.796,2.28-23.028,4.868-32.308,14.148c-9.276,9.28-11.872,21.516-14.148,32.304
			c-1.256,5.944-2.56,12.084-4.648,15.204c-2.036,3.04-7.168,6.556-12.14,9.944c-9.164,6.256-19.552,13.356-24.616,25.576
			c-4.996,12.04-2.708,24.28-0.692,35.08c1.128,6.032,2.288,12.256,1.544,16.04c-0.684,3.468-4.036,8.608-7.284,13.58
			C7.226,231.584,0.01,242.628,0.01,256.02c0,13.376,7.216,24.42,13.008,33.296c3.248,4.976,6.6,10.116,7.284,13.584
			c0.752,3.78-0.416,10.016-1.536,16.04c-2.016,10.804-4.304,23.04,0.684,35.072c5.072,12.236,15.456,19.32,24.616,25.58
			c4.964,3.392,10.104,6.9,12.14,9.944c2.088,3.116,3.384,9.256,4.648,15.196c2.276,10.796,4.864,23.032,14.14,32.312
			c9.28,9.272,21.52,11.868,32.316,14.148c5.94,1.256,12.08,2.548,15.184,4.632c3.052,2.04,6.556,7.18,9.956,12.156
			c6.248,9.156,13.332,19.54,25.56,24.616c4.856,2.008,10.136,2.984,16.128,2.984c6.6,0,12.88-1.172,18.948-2.304
			c4.896-0.916,9.512-1.78,13.208-1.78c1.096,0,2.06,0.08,2.844,0.244c3.456,0.68,8.596,4.032,13.572,7.28
			c8.876,5.796,19.92,13,33.308,13s24.432-7.204,33.308-13c4.972-3.248,10.112-6.6,13.58-7.28c0.784-0.164,1.74-0.244,2.836-0.244
			c3.696,0,8.312,0.868,13.2,1.78c6.072,1.14,12.348,2.304,18.948,2.304c6,0,11.272-0.976,16.128-2.984
			c12.228-5.08,19.316-15.452,25.568-24.616c3.396-4.976,6.908-10.124,9.94-12.156c3.112-2.084,9.256-3.376,15.192-4.632
			c10.796-2.28,23.044-4.876,32.324-14.156c9.268-9.28,11.864-21.508,14.132-32.312c1.264-5.928,2.56-12.084,4.648-15.196
			c2.036-3.048,7.176-6.556,12.148-9.952c9.152-6.248,19.54-13.336,24.608-25.556c4.988-12.04,2.7-24.28,0.684-35.08
			c-1.128-6.024-2.288-12.256-1.544-16.048C492.402,299.432,495.762,294.292,499.01,289.316z M118.15,180.652
			c0-34.592,28.152-62.744,62.752-62.744c34.592,0,62.748,28.148,62.748,62.744c0,34.6-28.152,62.756-62.748,62.756
			C146.302,243.412,118.15,215.256,118.15,180.652z M161.826,373.552c-3.168,3.172-7.34,4.764-11.504,4.764
			s-8.328-1.592-11.504-4.764c-6.356-6.352-6.356-16.656,0-23.016l212.04-212.04c6.352-6.36,16.656-6.36,23.012,0
			c6.356,6.352,6.356,16.656,0,23.008L161.826,373.552z M331.446,393.932c-34.6,0-62.752-28.148-62.752-62.744
			c0-34.6,28.152-62.756,62.752-62.756c34.592,0,62.748,28.156,62.748,62.756C394.194,365.784,366.042,393.932,331.446,393.932z"/>
                </g>
            </g>
            <g>
                <g>
                    <path d="M331.446,301.076c-16.652,0-30.208,13.556-30.208,30.212s13.556,30.204,30.208,30.204
			c16.656,0,30.204-13.548,30.204-30.204S348.102,301.076,331.446,301.076z"/>
                </g>
            </g>
            <g>
                <g>
                    <path d="M180.906,150.548c-16.652,0-30.208,13.548-30.208,30.196c0,16.66,13.556,30.212,30.208,30.212
			c16.652,0,30.204-13.556,30.204-30.212C211.11,164.096,197.558,150.548,180.906,150.548z"/>
                </g>
            </g>
        </symbol>

        <symbol id="icon-desktop" viewBox="0 0 576 512">
            <path d="M528 0H48C21.5 0 0 21.5 0 48v320c0 26.5 21.5 48 48 48h192l-16 48h-72c-13.3 0-24 10.7-24 24s10.7 24 24 24h272c13.3 0 24-10.7 24-24s-10.7-24-24-24h-72l-16-48h192c26.5 0 48-21.5 48-48V48c0-26.5-21.5-48-48-48zm-16 352H64V64h448v288z"></path>
        </symbol>

        <symbol id="icon-document" viewBox="0 0 384 512">
            <path d="M224 136V0H24C10.7 0 0 10.7 0 24v464c0 13.3 10.7 24 24 24h336c13.3 0 24-10.7 24-24V160H248c-13.2 0-24-10.8-24-24zm64 236c0 6.6-5.4 12-12 12H108c-6.6 0-12-5.4-12-12v-8c0-6.6 5.4-12 12-12h168c6.6 0 12 5.4 12 12v8zm0-64c0 6.6-5.4 12-12 12H108c-6.6 0-12-5.4-12-12v-8c0-6.6 5.4-12 12-12h168c6.6 0 12 5.4 12 12v8zm0-72v8c0 6.6-5.4 12-12 12H108c-6.6 0-12-5.4-12-12v-8c0-6.6 5.4-12 12-12h168c6.6 0 12 5.4 12 12zm96-114.1v6.1H256V0h6.1c6.4 0 12.5 2.5 17 7l97.9 98c4.5 4.5 7 10.6 7 16.9z"></path>
        </symbol>
        <symbol id="icon-exchange" viewBox="0 0 512 512">
            <g>
                <g>
                    <g>
                        <path d="M256,0c-4.521,0-8.563,2.865-10.063,7.135c-1.5,4.271-0.146,9.031,3.396,11.865l53.333,42.667
				c4.625,3.677,11.313,2.948,15-1.667c3.666-4.604,2.938-11.313-1.667-15l-26.646-21.302
				C403.021,39.948,490.667,137.927,490.667,256c0,77.385-38.146,149.76-102.042,193.615c-4.854,3.333-6.083,9.969-2.75,14.823
				c2.063,3.021,5.396,4.635,8.792,4.635c2.083,0,4.188-0.604,6.042-1.875C470.396,419.375,512,340.417,512,256
				C512,114.844,397.167,0,256,0z"/>
                        <path d="M262.666,493l-53.333-42.667c-4.604-3.646-11.312-2.938-15,1.667c-3.667,4.604-2.938,11.313,1.666,15l26.646,21.302
				C108.979,472.052,21.333,374.073,21.333,256c0-77.385,38.146-149.76,102.042-193.625c4.854-3.333,6.083-9.969,2.75-14.833
				c-3.313-4.854-9.938-6.073-14.833-2.75C41.604,92.625,0,171.583,0,256c0,141.156,114.833,256,256,256
				c4.521,0,8.563-2.865,10.063-7.135C267.563,500.594,266.208,495.833,262.666,493z"/>
                        <path d="M245.333,181.333h64c5.896,0,10.667-4.771,10.667-10.667c0-5.896-4.771-10.667-10.667-10.667h-42.667v-21.333
				c0-5.896-4.771-10.667-10.667-10.667s-10.667,4.771-10.667,10.667V160C215.917,160,192,183.927,192,213.333
				s23.917,53.333,53.333,53.333h21.333c17.646,0,32,14.354,32,32c0,17.646-14.354,32-32,32h-64
				c-5.896,0-10.667,4.771-10.667,10.667c0,5.896,4.771,10.667,10.667,10.667h42.667v21.333c0,5.896,4.771,10.667,10.667,10.667
				s10.667-4.771,10.667-10.667V352C296.083,352,320,328.073,320,298.667s-23.917-53.333-53.333-53.333h-21.333
				c-17.646,0-32-14.354-32-32C213.333,195.688,227.688,181.333,245.333,181.333z"/>
                    </g>
                </g>
            </g>
        </symbol>

        <symbol id="icon-plain" viewBox="0 0 576 512">
            <path d="M480 192H365.71L260.61 8.06A16.014 16.014 0 0 0 246.71 0h-65.5c-10.63 0-18.3 10.17-15.38 20.39L214.86 192H112l-43.2-57.6c-3.02-4.03-7.77-6.4-12.8-6.4H16.01C5.6 128-2.04 137.78.49 147.88L32 256 .49 364.12C-2.04 374.22 5.6 384 16.01 384H56c5.04 0 9.78-2.37 12.8-6.4L112 320h102.86l-49.03 171.6c-2.92 10.22 4.75 20.4 15.38 20.4h65.5c5.74 0 11.04-3.08 13.89-8.06L365.71 320H480c35.35 0 96-28.65 96-64s-60.65-64-96-64z"></path>
        </symbol>

        <symbol id="icon-urlLinls" viewBox="0 0 512 512">
            <path d="M326.612 185.391c59.747 59.809 58.927 155.698.36 214.59-.11.12-.24.25-.36.37l-67.2 67.2c-59.27 59.27-155.699 59.262-214.96 0-59.27-59.26-59.27-155.7 0-214.96l37.106-37.106c9.84-9.84 26.786-3.3 27.294 10.606.648 17.722 3.826 35.527 9.69 52.721 1.986 5.822.567 12.262-3.783 16.612l-13.087 13.087c-28.026 28.026-28.905 73.66-1.155 101.96 28.024 28.579 74.086 28.749 102.325.51l67.2-67.19c28.191-28.191 28.073-73.757 0-101.83-3.701-3.694-7.429-6.564-10.341-8.569a16.037 16.037 0 0 1-6.947-12.606c-.396-10.567 3.348-21.456 11.698-29.806l21.054-21.055c5.521-5.521 14.182-6.199 20.584-1.731a152.482 152.482 0 0 1 20.522 17.197zM467.547 44.449c-59.261-59.262-155.69-59.27-214.96 0l-67.2 67.2c-.12.12-.25.25-.36.37-58.566 58.892-59.387 154.781.36 214.59a152.454 152.454 0 0 0 20.521 17.196c6.402 4.468 15.064 3.789 20.584-1.731l21.054-21.055c8.35-8.35 12.094-19.239 11.698-29.806a16.037 16.037 0 0 0-6.947-12.606c-2.912-2.005-6.64-4.875-10.341-8.569-28.073-28.073-28.191-73.639 0-101.83l67.2-67.19c28.239-28.239 74.3-28.069 102.325.51 27.75 28.3 26.872 73.934-1.155 101.96l-13.087 13.087c-4.35 4.35-5.769 10.79-3.783 16.612 5.864 17.194 9.042 34.999 9.69 52.721.509 13.906 17.454 20.446 27.294 10.606l37.106-37.106c59.271-59.259 59.271-155.699.001-214.959z"></path>
        </symbol>

        <symbol id="icon-onlineBook" viewBox="0 0 448 512">
            <path xmlns="http://www.w3.org/2000/svg" d="M318.38 208h-39.09c-1.49 27.03-6.54 51.35-14.21 70.41 27.71-13.24 48.02-39.19 53.3-70.41zm0-32c-5.29-31.22-25.59-57.17-53.3-70.41 7.68 19.06 12.72 43.38 14.21 70.41h39.09zM224 97.31c-7.69 7.45-20.77 34.42-23.43 78.69h46.87c-2.67-44.26-15.75-71.24-23.44-78.69zm-41.08 8.28c-27.71 13.24-48.02 39.19-53.3 70.41h39.09c1.49-27.03 6.53-51.35 14.21-70.41zm0 172.82c-7.68-19.06-12.72-43.38-14.21-70.41h-39.09c5.28 31.22 25.59 57.17 53.3 70.41zM247.43 208h-46.87c2.66 44.26 15.74 71.24 23.43 78.69 7.7-7.45 20.78-34.43 23.44-78.69zM448 358.4V25.6c0-16-9.6-25.6-25.6-25.6H96C41.6 0 0 41.6 0 96v320c0 54.4 41.6 96 96 96h326.4c12.8 0 25.6-9.6 25.6-25.6v-16c0-6.4-3.2-12.8-9.6-19.2-3.2-16-3.2-60.8 0-73.6 6.4-3.2 9.6-9.6 9.6-19.2zM224 64c70.69 0 128 57.31 128 128s-57.31 128-128 128S96 262.69 96 192 153.31 64 224 64zm160 384H96c-19.2 0-32-12.8-32-32s16-32 32-32h288v64z"/>
        </symbol>

        <symbol id="icon-archive" viewBox="0 0 41.568 58.062">
            <g xmlns="http://www.w3.org/2000/svg" transform="translate(0.5 0.5)">
                <path d="M144,160h21.4v1.337H144Z" transform="translate(-136.199 -142.168)"/>
                <path class="a" d="M144,224h21.4v1.337H144Z" transform="translate(-136.199 -199.035)"/>
                <path class="a" d="M144,256h14.266v1.337H144Z" transform="translate(-136.199 -227.469)"/>
                <path class="a" d="M144,192h21.4v1.337H144Z" transform="translate(-136.199 -170.602)"/>
                <path class="a" d="M144.687,80H138v6.687h6.687Zm-1.337,5.35h-4.012V81.337h4.012Z" transform="translate(-130.867 -71.084)"/>
                <path class="a" d="M111,32.766V0H81.133V3.566H77.566v29.2H74v24.3h40.568v-24.3ZM82.47,1.337h27.194V32.766h-2.229V12.874L98.127,3.566H82.47ZM98.519,5.849l6.633,6.633H98.519ZM78.9,4.9H97.181V13.82H106.1V32.766h-5.35v3.566H87.82V32.766H78.9Zm7.579,29.2V37.67h15.6V34.1H113.23V52.827H75.337V34.1ZM75.337,55.725v-1.56H113.23v1.56Z" transform="translate(-74)"/>
                <path class="a" d="M201.6,368H186v4.9h15.6Zm-1.337,3.566H187.337v-2.229h12.928Z" transform="translate(-173.518 -326.987)"/>
            </g>
        </symbol>

        <symbol id="icon-file" viewBox="0 0 57.254 57.253">
            <rect class="a" width="1.908" height="11.803" transform="matrix(0.243, -0.97, 0.97, 0.243, 22.67, 40.049)"/>
            <rect class="a" width="1.908" height="11.803" transform="matrix(0.243, -0.97, 0.97, 0.243, 22.67, 36.232)"/>
            <rect class="a" width="1.908" height="2.951" transform="matrix(0.243, -0.97, 0.97, 0.243, 31.258, 34.562)"/>
            <rect class="a" width="1.908" height="6.885" transform="matrix(0.243, -0.97, 0.97, 0.243, 22.67, 32.415)"/>
            <rect class="a" width="1.908" height="11.803" transform="matrix(0.243, -0.97, 0.97, 0.243, 22.67, 28.598)"/>
            <path class="a" d="M250.863,77.725A2.863,2.863,0,1,0,248,74.863,2.863,2.863,0,0,0,250.863,77.725Zm0-3.817a.954.954,0,1,1-.954.954A.954.954,0,0,1,250.863,73.908Z" transform="translate(-220.327 -65.32)"/>
            <rect class="a" width="9.053" height="1.908" transform="matrix(0.949, -0.316, 0.316, 0.949, 39.776, 29.63)"/>
            <rect class="a" width="9.053" height="1.908" transform="matrix(0.949, -0.316, 0.316, 0.949, 8.286, 29.63)"/>
            <path class="a" d="M71.207,44.85l-1.226,1.462a3.807,3.807,0,0,1,1.364,2.924V71.345H63.711V69.437a.954.954,0,0,0-.16-.529l-.074-.111a7.3,7.3,0,0,1,.909-9.181.954.954,0,0,0,.089-1.247l-4.294-5.725a1.431,1.431,0,1,1,2.29-1.718l4.294,5.725a.954.954,0,0,0,1.718-.573V16.955a.954.954,0,0,0-1.256-.905L53.189,20.728l-16.9-4.693a.954.954,0,0,0-.557.015h0L21.424,20.82a.954.954,0,0,0-.653.905V56.078a.954.954,0,0,0,1.718.573l4.294-5.725a1.431,1.431,0,1,1,2.29,1.718l-4.294,5.725a.954.954,0,0,0,.089,1.247,7.3,7.3,0,0,1,.909,9.181l-.074.111a.954.954,0,0,0-.16.529v1.908H17.908V49.237a3.807,3.807,0,0,1,1.364-2.924L18.046,44.85A5.711,5.711,0,0,0,16,49.237V72.3a.954.954,0,0,0,.954.954H26.5a.954.954,0,0,0,.954-.954V69.723a9.214,9.214,0,0,0-.672-10.842l.62-.826,6.079-2.027-.6-1.81-3.464,1.155L30.6,53.788a3.331,3.331,0,0,0,.427-.759l2.451-.817-.6-1.811-1.709.57a3.327,3.327,0,0,0-.849-1.522l3.162-1.054-.6-1.81-8.588,2.863.375,1.125L22.68,53.215V43.5l.863-.173a10.061,10.061,0,0,0,5.737-3.414,8.1,8.1,0,0,1,5.8-2.91v22.2L30.012,60.9l.6,1.811,5.449-1.817,16.9,4.693a.949.949,0,0,0,.565-.017h0l5.209-1.789-.62-1.8-3.944,1.355V43.5l.863-.173a10.061,10.061,0,0,0,5.737-3.414,8.1,8.1,0,0,1,5.8-2.91v16.21L64,49.78A3.34,3.34,0,0,0,63.167,49l1.8-.6-.6-1.81-8.588,2.863.6,1.81,1.8-.6a3.361,3.361,0,0,0-.119,1.845l-2.289.763.6,1.811,2.592-.864,1.083,1.443-4.278,1.426.6,1.81,4.882-1.628,1.213,1.618A9.214,9.214,0,0,0,61.8,69.723V72.3a.954.954,0,0,0,.954.954H72.3a.954.954,0,0,0,.954-.954V49.237a5.711,5.711,0,0,0-2.046-4.387ZM66.574,27.056,65.34,25.822a.954.954,0,0,0-1.528.248l-2.436,4.872L58.413,29.46a.954.954,0,0,0-1.16.242l-3.084,3.7V22.413l12.4-4.135ZM36.993,29.949l4.469-2.234,1.758,2.461-2.982,2.237,1.145,1.527,2.946-2.21,1.43,2a.954.954,0,0,0,1.451.12l2.04-2.04,3.011,4.516v4.087l-.174-.174a8.409,8.409,0,0,0-7.946-2.2,6.5,6.5,0,0,1-5.6-1.222L36.993,35.58Zm15.268-7.5V32.888l-2.069-3.1a.954.954,0,0,0-1.469-.145l-2.066,2.066-4.116-5.763a.954.954,0,0,0-1.2-.3l-4.344,2.172V18.21ZM35.084,18.279v9.172l-2.29-1.718a.954.954,0,0,0-1.336.191l-2.29,3.054-3.054-2.29a.954.954,0,0,0-1.366.234l-2.069,3.1V22.413ZM27.814,38.693a8.146,8.146,0,0,1-4.645,2.764l-.489.1V33.465l3.1-4.646,3.01,2.257a.954.954,0,0,0,1.336-.191l2.29-3.054,2.672,2v5.258A10,10,0,0,0,27.814,38.693Zm9.179,20.476V38.024l.354.283A8.416,8.416,0,0,0,44.6,39.892a6.491,6.491,0,0,1,6.134,1.7l1.524,1.523v20.3ZM60.651,37.355l-1.991-1.991a.954.954,0,0,0-1.469.145l-1.908,2.863,1.588,1.059,1.263-1.894L59.3,38.7a8.145,8.145,0,0,1-4.639,2.757l-.489.1v-5.17l4.066-4.879,3.141,1.57a.954.954,0,0,0,1.28-.427l2.271-4.541,1.647,1.647v5.34a9.993,9.993,0,0,0-5.923,2.26Z" transform="translate(-16 -16)"/>
            <path class="a" d="M83.252,144.424l-1.908,2.863,1.588,1.059,1.379-2.069,2.069,1.379,1.059-1.588-2.863-1.908A.954.954,0,0,0,83.252,144.424Z" transform="translate(-73.55 -128.732)"/>
            <path class="a" d="M21.82,18.045l.093-.018-.374-1.871-.093.019A6.792,6.792,0,0,0,16,22.816h1.908a4.878,4.878,0,0,1,3.911-4.771Z" transform="translate(-16 -16.137)"/>
        </symbol>

        <symbol id="icon-pieChart" viewBox="0 0 544 512">
            <path xmlns="http://www.w3.org/2000/svg" d="M527.79 288H290.5l158.03 158.03c6.04 6.04 15.98 6.53 22.19.68 38.7-36.46 65.32-85.61 73.13-140.86 1.34-9.46-6.51-17.85-16.06-17.85zm-15.83-64.8C503.72 103.74 408.26 8.28 288.8.04 279.68-.59 272 7.1 272 16.24V240h223.77c9.14 0 16.82-7.68 16.19-16.8zM224 288V50.71c0-9.55-8.39-17.4-17.84-16.06C86.99 51.49-4.1 155.6.14 280.37 4.5 408.51 114.83 513.59 243.03 511.98c50.4-.63 96.97-16.87 135.26-44.03 7.9-5.6 8.42-17.23 1.57-24.08L224 288z"/>
        </symbol>

        <symbol id="icon-language" viewBox="0 0 24 24">
            <path xmlns="http://www.w3.org/2000/svg" d="M0 0h24v24H0z" fill="none"/>
            <path xmlns="http://www.w3.org/2000/svg" d="M11.99 2C6.47 2 2 6.48 2 12s4.47 10 9.99 10C17.52 22 22 17.52 22 12S17.52 2 11.99 2zm6.93 6h-2.95c-.32-1.25-.78-2.45-1.38-3.56 1.84.63 3.37 1.91 4.33 3.56zM12 4.04c.83 1.2 1.48 2.53 1.91 3.96h-3.82c.43-1.43 1.08-2.76 1.91-3.96zM4.26 14C4.1 13.36 4 12.69 4 12s.1-1.36.26-2h3.38c-.08.66-.14 1.32-.14 2 0 .68.06 1.34.14 2H4.26zm.82 2h2.95c.32 1.25.78 2.45 1.38 3.56-1.84-.63-3.37-1.9-4.33-3.56zm2.95-8H5.08c.96-1.66 2.49-2.93 4.33-3.56C8.81 5.55 8.35 6.75 8.03 8zM12 19.96c-.83-1.2-1.48-2.53-1.91-3.96h3.82c-.43 1.43-1.08 2.76-1.91 3.96zM14.34 14H9.66c-.09-.66-.16-1.32-.16-2 0-.68.07-1.35.16-2h4.68c.09.65.16 1.32.16 2 0 .68-.07 1.34-.16 2zm.25 5.56c.6-1.11 1.06-2.31 1.38-3.56h2.95c-.96 1.65-2.49 2.93-4.33 3.56zM16.36 14c.08-.66.14-1.32.14-2 0-.68-.06-1.34-.14-2h3.38c.16.64.26 1.31.26 2s-.1 1.36-.26 2h-3.38z"/>
        </symbol>

        <symbol id="icon-eLibrary" viewBox="0 0 63.221 57.062">
            <path xmlns="http://www.w3.org/2000/svg" d="M19.588,24.855H52.3a10.6,10.6,0,0,0-2.4,5.06H20.726v3.717H49.9a10.6,10.6,0,0,0,2.4,5.06H19.588a6.919,6.919,0,0,1,0-13.837ZM30.337,81.917,25.248,79.4l-5.089,2.515V68.742H30.337ZM34.055,73.8v-5.06H60.819a10.6,10.6,0,0,0,2.4,5.06Zm26.765-8.777H8.056v3.717h8.385V73.8H6.919a6.919,6.919,0,1,1,0-13.837h56.3A10.6,10.6,0,0,0,60.819,65.024Zm0-17.555H8.056v3.717H60.819a10.6,10.6,0,0,0,2.4,5.06H6.919a6.919,6.919,0,1,1,0-13.837h56.3A10.6,10.6,0,0,0,60.819,47.47Z" transform="translate(0 -24.855)"/>
        </symbol>

        <symbol id="icon-annualReports" viewBox="0 0 56.924 56.924">
            <path class="a" d="M41.9,32.366a.237.237,0,0,1,.237-.237h1.66v2.846h1.9V23.59h40.8a.949.949,0,0,0,.949-.949V16.949A.949.949,0,0,0,86.488,16H81.744v1.9h3.795v3.795H45.692V17.9H79.847V16h-35.1a.949.949,0,0,0-.949.949V30.231h-1.66A2.137,2.137,0,0,0,40,32.366v2.609h1.9Z" transform="translate(-37.154 -16)"/>
            <path class="a" d="M89.334,239.18H41.9v-3.795H40v9.25a2.137,2.137,0,0,0,2.135,2.135h3.558v-1.9H42.135a.237.237,0,0,1-.237-.237v-3.558H89.334v3.558a.237.237,0,0,1-.237.237H47.59v1.9H59.923v1.73a2.6,2.6,0,0,1-2.18,2.573l-.738.123a3.31,3.31,0,0,0-2.775,3.275v.837a.949.949,0,0,0,.949.949H76.052a.949.949,0,0,0,.949-.949v-.837a3.31,3.31,0,0,0-2.775-3.275l-.738-.123a2.6,2.6,0,0,1-2.18-2.574v-1.73H89.1a2.137,2.137,0,0,0,2.135-2.135V224h-1.9ZM73.177,252.945l.738.123A1.418,1.418,0,0,1,75.1,254.36H56.133a1.418,1.418,0,0,1,1.185-1.292l.738-.123a4.492,4.492,0,0,0,3.766-4.445v-1.73h7.59v1.73a4.492,4.492,0,0,0,3.766,4.445Z" transform="translate(-37.154 -199.333)"/>
            <path class="a" d="M72,236.334a.949.949,0,0,0,.949.949h41.744a.949.949,0,0,0,.949-.949V224h-1.9v11.385H72Z" transform="translate(-65.359 -199.333)"/>
            <path class="a" d="M178.436,112a10.436,10.436,0,1,0,10.436,10.436A10.436,10.436,0,0,0,178.436,112Zm0,14.231a3.795,3.795,0,1,1,3.795-3.795A3.795,3.795,0,0,1,178.436,126.231Zm-.949-12.281v2.873a5.707,5.707,0,0,0-4.665,4.665H169.95A8.556,8.556,0,0,1,177.487,113.95Zm-7.538,9.435h2.873a5.707,5.707,0,0,0,4.665,4.665v2.873a8.556,8.556,0,0,1-7.538-7.538Zm9.435,7.538v-2.873a5.693,5.693,0,0,0,0-11.227V113.95a8.539,8.539,0,0,1,0,16.973Z" transform="translate(-149.974 -100.615)"/>
            <path class="a" d="M118.919,99.517l1.342-1.342-1.9-1.9a.949.949,0,0,0-.671-.278H112v1.9h5.3Z" transform="translate(-100.615 -86.513)"/>
            <path class="a" d="M112,128h4.744v1.9H112Z" transform="translate(-100.615 -114.718)"/>
            <path class="a" d="M331.685,274.343l-1.342,1.342,1.9,1.9a.949.949,0,0,0,.671.278H338.6v-1.9h-5.3Z" transform="translate(-293.064 -243.706)"/>
            <path class="a" d="M360,256h4.744v1.9H360Z" transform="translate(-319.204 -227.538)"/>
            <path class="a" d="M104,40h1.9v1.9H104Z" transform="translate(-93.564 -37.154)"/>
            <path class="a" d="M136,40h1.9v1.9H136Z" transform="translate(-121.769 -37.154)"/>
            <path class="a" d="M168,40h1.9v1.9H168Z" transform="translate(-149.974 -37.154)"/>
            <path class="a" d="M392,40h1.9v1.9H392Z" transform="translate(-347.409 -37.154)"/>
            <path class="a" d="M31.18,204.334V202.91l3.415-2.562a.949.949,0,0,0-.236-1.647l-3.179-1.192v-4.561a.949.949,0,0,0-.949-.949H16.949a.949.949,0,0,0-.949.949v11.385a.949.949,0,0,0,.949.949H30.231A.949.949,0,0,0,31.18,204.334Zm-1.9-1.9v.949H17.9V193.9H29.282v4.269a.949.949,0,0,0,.616.888l2.173.815-2.409,1.807A.949.949,0,0,0,29.282,202.436Z" transform="translate(-16 -171.128)"/>
            <path class="a" d="M48,248h1.9v2.846H48Z" transform="translate(-44.205 -220.487)"/>
            <path class="a" d="M72,224h1.9v5.692H72Z" transform="translate(-65.359 -199.333)"/>
            <path class="a" d="M96,240h1.9v3.795H96Z" transform="translate(-86.513 -213.435)"/>
            <path class="a" d="M354.026,96H340.743a.949.949,0,0,0-.949.949v1.423l-3.415,2.562a.949.949,0,0,0,.236,1.647l3.179,1.192v4.561a.949.949,0,0,0,.949.949h13.282a.949.949,0,0,0,.949-.949V96.949A.949.949,0,0,0,354.026,96Zm-.949,11.385H341.692v-4.269a.949.949,0,0,0-.616-.888l-2.173-.815,2.409-1.807a.949.949,0,0,0,.379-.759V97.9h11.385Z" transform="translate(-298.05 -86.513)"/>
            <path class="a" d="M397.86,127.008l1.227,1.227a.949.949,0,0,0,1.43-.1l2.846-3.795-1.518-1.138-2.19,2.92L398.531,125a.949.949,0,0,0-1.342,0l-2.846,2.846,1.342,1.342Z" transform="translate(-349.475 -110.487)"/>
        </symbol>

        <symbol id="icon-Enotebook" viewBox="0 0 81.777 57.124">
            <path xmlns="http://www.w3.org/2000/svg" class="a" d="M19.233,8.571H4.952a2.387,2.387,0,0,0-2.38,2.38V63.315a2.387,2.387,0,0,0,2.38,2.38H19.233a2.387,2.387,0,0,0,2.38-2.38V10.952a2.387,2.387,0,0,0-2.38-2.38Zm-2.38,14.281H7.332v-4.76h9.521ZM43.034,8.571H28.753a2.387,2.387,0,0,0-2.38,2.38V63.315a2.387,2.387,0,0,0,2.38,2.38H43.034a2.387,2.387,0,0,0,2.38-2.38V10.952a2.387,2.387,0,0,0-2.38-2.38Zm-2.38,14.281H31.133v-4.76h9.521Zm18.825-10.6L46.725,18.678a2.387,2.387,0,0,0-1.055,3.2l21.42,42.512a2.387,2.387,0,0,0,3.2,1.055l12.754-6.426a2.387,2.387,0,0,0,1.055-3.2L62.675,13.306a2.387,2.387,0,0,0-3.2-1.055ZM71.6,63.315a2.38,2.38,0,1,1-2.38-2.38A2.38,2.38,0,0,1,71.6,63.315Z" transform="translate(-2.571 -8.571)"/>
        </symbol>

        <symbol id="icon-newOffers" viewBox="0 0 57.243 57.243">
            <path class="a" d="M177.59,139.057l7.906-23.717a1.677,1.677,0,0,0-3.182-1.061L174.408,138a1.677,1.677,0,1,0,3.182,1.061Z" transform="translate(-154.832 -100.483)"/>
            <path class="a" d="M269.564,199.265a5.031,5.031,0,1,0-5.031-5.031A5.037,5.037,0,0,0,269.564,199.265Zm0-6.708a1.677,1.677,0,1,1-1.677,1.677A1.679,1.679,0,0,1,269.564,192.557Z" transform="translate(-234.957 -168.05)"/>
            <path class="a" d="M99.858,189.2a5.031,5.031,0,1,0,5.031,5.031A5.037,5.037,0,0,0,99.858,189.2Zm0,6.708a1.677,1.677,0,1,1,1.677-1.677A1.679,1.679,0,0,1,99.858,195.911Z" transform="translate(-84.225 -168.05)"/>
            <path class="a" d="M56.908,20.8,51.06,13l.228-1.6a1.677,1.677,0,0,0-.474-1.423L47.256,6.421l3.557-3.558A1.677,1.677,0,0,0,48.442.491L44.885,4.049,41.327.491A1.679,1.679,0,0,0,39.9.017L23.3,2.389a1.677,1.677,0,0,0-.949.474L1.8,23.418a6.156,6.156,0,0,0,0,8.7L19.191,49.507a6.134,6.134,0,0,0,1.157.908v.68A6.156,6.156,0,0,0,26.5,57.244h24.6a6.156,6.156,0,0,0,6.149-6.149V21.8a1.677,1.677,0,0,0-.335-1.006ZM4.17,29.742a2.8,2.8,0,0,1,0-3.953L24.33,5.63,39.548,3.456l2.965,2.965L40.141,8.792,38.955,7.607a1.677,1.677,0,1,0-2.372,2.372l4.743,4.743A1.677,1.677,0,0,0,43.7,12.35l-1.186-1.186,2.372-2.372,2.965,2.965L45.675,26.976,25.515,47.135a2.8,2.8,0,0,1-3.953,0ZM53.889,51.094a2.8,2.8,0,0,1-2.8,2.8H26.5A2.8,2.8,0,0,1,23.711,51.3a6.125,6.125,0,0,0,4.176-1.794L48.442,28.952A1.677,1.677,0,0,0,48.916,28l1.473-10.309,3.5,4.667Z" transform="translate(0 0)"/>
        </symbol>

        <symbol id="icon-eEvents" viewBox="0 0 53.425 56.986">
            <path xmlns="http://www.w3.org/2000/svg" class="a" d="M20.379,23.3H27.5v7.123H20.379Zm10.685,0h7.123v7.123H31.064Zm10.685,0h7.123v7.123H41.749ZM9.694,44.668h7.123v7.123H9.694Zm10.685,0H27.5v7.123H20.379Zm10.685,0h7.123v7.123H31.064ZM20.379,33.983H27.5v7.123H20.379Zm10.685,0h7.123v7.123H31.064Zm10.685,0h7.123v7.123H41.749Zm-32.055,0h7.123v7.123H9.694ZM48.872,1.928V5.49H41.749V1.928H16.817V5.49H9.694V1.928H2.571V58.914H56V1.928H48.872Zm3.562,53.425H6.132V16.175h46.3Z" transform="translate(-2.571 -1.928)"/>
        </symbol>

        <symbol id="icon-newApplication" viewBox="0 0 57.303 57.315">
            <path xmlns="http://www.w3.org/2000/svg" class="a" d="M57.3,7.776V54.04a5.463,5.463,0,0,1-5.526,5.526H5.526A5.481,5.481,0,0,1,0,54.027V7.776A5.463,5.463,0,0,1,5.526,2.25H51.79A5.46,5.46,0,0,1,57.3,7.776ZM52.532,54.027V7.776a.759.759,0,0,0-.742-.742H50.6L36.492,16.576l-7.841-6.383-7.828,6.383L6.715,7.021H5.526a.759.759,0,0,0-.742.742V54.027a.759.759,0,0,0,.742.742H51.79a.742.742,0,0,0,.742-.742ZM19.212,21.948V26.68h-9.4V21.948Zm0,9.516v4.771h-9.4V31.464Zm1.42-18.841,6.907-5.59H12.381l8.25,5.59Zm26.861,9.324V26.68H22.422V21.948Zm0,9.516v4.771H22.422V31.464ZM36.671,12.623l8.25-5.59H29.777ZM47.492,41.006v4.771H34.778V41.006H47.492Z" transform="translate(0 -2.25)"/>
        </symbol>
    </defs>
</svg>
